<svg width="365" height="333" viewBox="0 0 365 333" fill="none" xmlns="http://www.w3.org/2000/svg">
<g clip-path="url(#clip0_143_639)">
<rect width="365" height="333" fill="white"/>
<path d="M360.091 42.2854H12.5466C10.155 42.2854 8.21619 44.2224 8.21619 46.6118V262.636C8.21619 265.026 10.155 266.963 12.5466 266.963H360.091C362.482 266.963 364.421 265.026 364.421 262.636V46.6118C364.421 44.2224 362.482 42.2854 360.091 42.2854Z" fill="white"/>
<path d="M148.492 279.537L153.723 288.406H227.359L232.211 279.537H148.492Z" fill="#263238"/>
<path d="M8.21619 64.2953H70.8593V266.99H12.9608C11.7024 266.99 10.4956 266.49 9.60585 265.601C8.71606 264.712 8.21619 263.507 8.21619 262.25V64.2953Z" fill="#F5F5F5"/>
<path d="M35.7115 73.4428C36.0379 73.247 36.3891 73.0957 36.7558 72.9931L36.9719 71.9587H38.7185L38.9616 72.9841C39.3331 73.0723 39.6906 73.2116 40.0239 73.3979L40.9242 72.8222L42.1756 74.0275L41.6354 74.927C41.833 75.2491 41.9845 75.5973 42.0856 75.9613L43.1209 76.1772V77.9222L42.0946 78.174C42.0047 78.5419 41.8653 78.8959 41.6805 79.2264L42.2566 80.1259L41.0502 81.3851L40.1499 80.8364C39.8235 81.0323 39.4723 81.1836 39.1056 81.2862L38.8895 82.3206H37.1429L36.8909 81.3042C36.5223 81.2112 36.168 81.069 35.8375 80.8814L34.9372 81.4661L33.6768 80.2518L34.226 79.3523C34.0299 79.0262 33.8785 78.6753 33.7758 78.3089L32.7405 78.0931V76.3481L33.7578 76.1053C33.8493 75.7337 33.9917 75.3765 34.181 75.0439L33.5958 74.1444L34.8112 72.8942L35.7115 73.4338V73.4428ZM36.6118 75.7725C36.3552 76.0393 36.1835 76.3763 36.1186 76.7406C36.0537 77.105 36.0984 77.4804 36.247 77.8193C36.3957 78.1583 36.6416 78.4456 36.9537 78.6449C37.2658 78.8442 37.6301 78.9466 38.0004 78.939C38.3708 78.9315 38.7306 78.8144 39.0343 78.6025C39.338 78.3906 39.572 78.0935 39.7067 77.7488C39.8414 77.404 39.8707 77.0271 39.7909 76.6657C39.7112 76.3043 39.5259 75.9747 39.2586 75.7185C38.9027 75.3812 38.4281 75.1977 37.9376 75.2078C37.4472 75.2179 36.9805 75.4208 36.6388 75.7725H36.6118Z" fill="#A8BBC6"/>
<path d="M50.188 122.284H22.8728C22.1294 122.281 21.4172 121.985 20.8924 121.459C20.3676 120.933 20.0729 120.22 20.0729 119.477V119.477C20.0729 118.735 20.3676 118.022 20.8924 117.496C21.4172 116.97 22.1294 116.674 22.8728 116.671H50.188C50.9314 116.674 51.6436 116.97 52.1684 117.496C52.6932 118.022 52.9879 118.735 52.9879 119.477V119.477C52.9879 120.22 52.6932 120.933 52.1684 121.459C51.6436 121.985 50.9314 122.281 50.188 122.284V122.284Z" fill="#A8BBC6"/>
<path d="M50.188 108H22.8728C22.1294 107.998 21.4172 107.701 20.8924 107.175C20.3676 106.649 20.0729 105.937 20.0729 105.194V105.194C20.0729 104.451 20.3676 103.739 20.8924 103.213C21.4172 102.687 22.1294 102.39 22.8728 102.388H50.188C50.9314 102.39 51.6436 102.687 52.1684 103.213C52.6932 103.739 52.9879 104.451 52.9879 105.194V105.194C52.9879 105.937 52.6932 106.649 52.1684 107.175C51.6436 107.701 50.9314 107.998 50.188 108V108Z" fill="#A8BBC6"/>
<path d="M50.188 94.9311H22.8728C22.1294 94.9287 21.4172 94.632 20.8924 94.1059C20.3676 93.5799 20.0729 92.8675 20.0729 92.1247V92.1247C20.0729 91.382 20.3676 90.6696 20.8924 90.1435C21.4172 89.6175 22.1294 89.3208 22.8728 89.3184H50.188C50.9314 89.3208 51.6436 89.6175 52.1684 90.1435C52.6932 90.6696 52.9879 91.382 52.9879 92.1247V92.1247C52.9879 92.8675 52.6932 93.5799 52.1684 94.1059C51.6436 94.632 50.9314 94.9287 50.188 94.9311V94.9311Z" fill="#A8BBC6"/>
<path d="M123.599 78.5698H97.7242C96.9808 78.5674 96.2687 78.2707 95.7438 77.7447C95.219 77.2186 94.9243 76.5062 94.9243 75.7635C94.9243 75.0207 95.219 74.3083 95.7438 73.7823C96.2687 73.2562 96.9808 72.9595 97.7242 72.9571H123.599C124.342 72.9595 125.055 73.2562 125.579 73.7823C126.104 74.3083 126.399 75.0207 126.399 75.7635V75.7635C126.399 76.5062 126.104 77.2186 125.579 77.7447C125.055 78.2707 124.342 78.5674 123.599 78.5698V78.5698Z" fill="#263238"/>
<path d="M123.599 93.249H97.7242C96.9808 93.2466 96.2687 92.9499 95.7438 92.4239C95.219 91.8978 94.9243 91.1854 94.9243 90.4427V90.4427C94.9243 89.6999 95.219 88.9875 95.7438 88.4615C96.2687 87.9354 96.9808 87.6387 97.7242 87.6364H123.599C124.342 87.6387 125.055 87.9354 125.579 88.4615C126.104 88.9875 126.399 89.6999 126.399 90.4427V90.4427C126.399 91.1854 126.104 91.8978 125.579 92.4239C125.055 92.9499 124.342 93.2466 123.599 93.249V93.249Z" fill="#A8BBC6"/>
<path d="M123.599 108.414H97.7242C96.9808 108.412 96.2687 108.115 95.7438 107.589C95.219 107.063 94.9243 106.35 94.9243 105.608V105.608C94.9243 105.24 94.9967 104.877 95.1374 104.537C95.2782 104.198 95.4844 103.889 95.7444 103.63C96.0044 103.37 96.313 103.164 96.6527 103.023C96.9924 102.883 97.3565 102.81 97.7242 102.81H123.599C124.342 102.81 125.054 103.105 125.579 103.63C126.104 104.154 126.399 104.866 126.399 105.608V105.608C126.399 106.35 126.104 107.063 125.579 107.589C125.055 108.115 124.342 108.412 123.599 108.414V108.414Z" fill="#FE7E02"/>
<path d="M112.561 137.737H97.7243C97.3566 137.737 96.9925 137.664 96.6528 137.524C96.3131 137.383 96.0044 137.177 95.7444 136.917C95.4844 136.658 95.2782 136.349 95.1375 136.01C94.9967 135.67 94.9243 135.307 94.9243 134.939C94.9231 134.571 94.9947 134.206 95.1349 133.866C95.2751 133.526 95.4811 133.216 95.7412 132.955C96.0013 132.695 96.3104 132.488 96.6507 132.347C96.991 132.206 97.3558 132.133 97.7243 132.133H112.561C113.306 132.133 114.021 132.429 114.547 132.955C115.074 133.481 115.37 134.195 115.37 134.939V134.939C115.368 135.682 115.071 136.394 114.544 136.918C114.018 137.442 113.305 137.737 112.561 137.737V137.737Z" fill="#263238"/>
<path d="M112.561 152.938H97.7243C97.3566 152.938 96.9925 152.865 96.6528 152.725C96.3131 152.584 96.0044 152.378 95.7444 152.118C95.4844 151.859 95.2782 151.55 95.1375 151.211C94.9967 150.871 94.9243 150.508 94.9243 150.14V150.14C94.9231 149.772 94.9947 149.407 95.1349 149.067C95.2751 148.727 95.4811 148.417 95.7412 148.156C96.0013 147.896 96.3104 147.689 96.6507 147.548C96.991 147.407 97.3558 147.334 97.7243 147.334H112.561C113.306 147.334 114.021 147.63 114.547 148.156C115.074 148.682 115.37 149.396 115.37 150.14V150.14C115.368 150.883 115.071 151.595 114.544 152.119C114.018 152.643 113.305 152.938 112.561 152.938V152.938Z" fill="#263238"/>
<path d="M156.64 152.938H129.442C128.699 152.938 127.987 152.643 127.462 152.118C126.937 151.594 126.642 150.882 126.642 150.14V150.14C126.641 149.772 126.712 149.407 126.852 149.067C126.993 148.727 127.199 148.417 127.459 148.156C127.719 147.896 128.028 147.689 128.368 147.548C128.709 147.407 129.073 147.334 129.442 147.334H156.64C157.009 147.333 157.375 147.405 157.716 147.545C158.058 147.686 158.368 147.892 158.629 148.153C158.89 148.414 159.097 148.724 159.237 149.065C159.378 149.406 159.45 149.771 159.449 150.14V150.14C159.449 150.508 159.376 150.873 159.235 151.213C159.094 151.553 158.887 151.862 158.626 152.122C158.365 152.381 158.055 152.587 157.714 152.727C157.373 152.867 157.008 152.939 156.64 152.938V152.938Z" fill="#A8BBC6"/>
<path d="M141.263 166.457H114.065C113.32 166.457 112.605 166.161 112.078 165.635C111.552 165.108 111.256 164.395 111.256 163.65V163.65C111.258 162.908 111.555 162.196 112.082 161.672C112.608 161.147 113.321 160.853 114.065 160.853H141.263C141.631 160.853 141.995 160.925 142.334 161.066C142.674 161.206 142.983 161.412 143.243 161.672C143.503 161.932 143.709 162.24 143.85 162.58C143.99 162.919 144.063 163.283 144.063 163.65V163.65C144.064 164.018 143.992 164.383 143.852 164.724C143.712 165.064 143.506 165.373 143.246 165.634C142.986 165.895 142.677 166.102 142.336 166.243C141.996 166.384 141.631 166.457 141.263 166.457V166.457Z" fill="#FE7E02"/>
<path d="M146.404 176.27H129.487C127.941 176.27 126.687 177.522 126.687 179.067V179.076C126.687 180.621 127.941 181.873 129.487 181.873H146.404C147.95 181.873 149.204 180.621 149.204 179.076V179.067C149.204 177.522 147.95 176.27 146.404 176.27Z" fill="#FE7E02"/>
<path d="M146.395 212.122H129.496C128.751 212.122 128.037 211.827 127.51 211.3C126.983 210.774 126.687 210.06 126.687 209.316V209.316C126.687 208.572 126.983 207.858 127.51 207.332C128.037 206.805 128.751 206.51 129.496 206.51H146.395C147.14 206.51 147.854 206.805 148.381 207.332C148.908 207.858 149.204 208.572 149.204 209.316V209.316C149.204 210.06 148.908 210.774 148.381 211.3C147.854 211.827 147.14 212.122 146.395 212.122V212.122Z" fill="#FE7E02"/>
<path d="M146.395 244.009H129.496C128.751 244.009 128.037 243.713 127.51 243.187C126.983 242.66 126.687 241.946 126.687 241.202C126.689 240.459 126.986 239.748 127.513 239.224C128.039 238.699 128.753 238.405 129.496 238.405H146.395C147.138 238.405 147.851 238.699 148.378 239.224C148.904 239.748 149.201 240.459 149.204 241.202V241.202C149.204 241.946 148.908 242.66 148.381 243.187C147.854 243.713 147.14 244.009 146.395 244.009V244.009Z" fill="#FE7E02"/>
<path d="M187.944 244.009H158.315C157.57 244.009 156.855 243.713 156.328 243.187C155.802 242.66 155.506 241.946 155.506 241.202V241.202C155.508 240.459 155.805 239.748 156.332 239.224C156.858 238.699 157.571 238.405 158.315 238.405H187.944C188.686 238.405 189.398 238.7 189.923 239.224C190.449 239.749 190.744 240.46 190.744 241.202V241.202C190.745 241.57 190.673 241.935 190.533 242.275C190.393 242.616 190.187 242.925 189.927 243.186C189.667 243.447 189.357 243.654 189.017 243.795C188.677 243.936 188.312 244.009 187.944 244.009V244.009Z" fill="#455A64"/>
<path d="M208.677 244.009H204.41C203.665 244.009 202.951 243.713 202.424 243.187C201.897 242.66 201.601 241.946 201.601 241.202C201.603 240.459 201.9 239.748 202.427 239.224C202.953 238.699 203.667 238.405 204.41 238.405H208.677C209.421 238.405 210.134 238.699 210.661 239.224C211.187 239.748 211.484 240.459 211.486 241.202V241.202C211.486 241.946 211.19 242.66 210.664 243.187C210.137 243.713 209.422 244.009 208.677 244.009Z" fill="#A8BBC6"/>
<path d="M186.161 212.122H161.124C160.38 212.12 159.668 211.823 159.143 211.297C158.618 210.771 158.324 210.059 158.324 209.316V209.316C158.324 208.573 158.618 207.861 159.143 207.335C159.668 206.809 160.38 206.512 161.124 206.51H186.161C186.906 206.51 187.621 206.805 188.147 207.332C188.674 207.858 188.97 208.572 188.97 209.316V209.316C188.97 210.06 188.674 210.774 188.147 211.3C187.621 211.827 186.906 212.122 186.161 212.122V212.122Z" fill="#A8BBC6"/>
<path d="M241.071 226.1H161.124C160.381 226.1 159.669 225.805 159.144 225.281C158.619 224.756 158.324 224.045 158.324 223.303V223.303C158.324 222.56 158.618 221.848 159.143 221.322C159.668 220.796 160.38 220.499 161.124 220.496H241.071C241.816 220.496 242.53 220.792 243.057 221.318C243.584 221.845 243.88 222.558 243.88 223.303C243.877 224.046 243.58 224.757 243.054 225.281C242.527 225.806 241.814 226.1 241.071 226.1V226.1Z" fill="#455A64"/>
<path d="M250.307 212.122H199.26C198.517 212.12 197.805 211.823 197.28 211.297C196.755 210.771 196.46 210.059 196.46 209.316C196.46 208.573 196.755 207.861 197.28 207.335C197.805 206.809 198.517 206.512 199.26 206.51H250.307C251.051 206.512 251.763 206.809 252.288 207.335C252.813 207.861 253.107 208.573 253.107 209.316V209.316C253.107 210.059 252.813 210.771 252.288 211.297C251.763 211.823 251.051 212.12 250.307 212.122V212.122Z" fill="#455A64"/>
<path d="M180.507 176.27H159.35C157.803 176.27 156.55 177.522 156.55 179.067V179.076C156.55 180.621 157.803 181.873 159.35 181.873H180.507C182.053 181.873 183.307 180.621 183.307 179.076V179.067C183.307 177.522 182.053 176.27 180.507 176.27Z" fill="#455A64"/>
<path d="M198.81 176.27H193.544C191.997 176.27 190.744 177.522 190.744 179.067V179.076C190.744 180.621 191.997 181.873 193.544 181.873H198.81C200.357 181.873 201.61 180.621 201.61 179.076V179.067C201.61 177.522 200.357 176.27 198.81 176.27Z" fill="#A8BBC6"/>
<path d="M239.135 176.27H212.684C211.138 176.27 209.884 177.522 209.884 179.067V179.076C209.884 180.621 211.138 181.873 212.684 181.873H239.135C240.681 181.873 241.935 180.621 241.935 179.076V179.067C241.935 177.522 240.681 176.27 239.135 176.27Z" fill="#A8BBC6"/>
<path d="M159.683 166.457H153.624C152.879 166.457 152.165 166.161 151.638 165.635C151.111 165.108 150.815 164.395 150.815 163.65V163.65C150.817 162.908 151.114 162.196 151.641 161.672C152.167 161.147 152.881 160.853 153.624 160.853H159.683C160.427 160.853 161.14 161.147 161.666 161.672C162.193 162.196 162.49 162.908 162.492 163.65V163.65C162.492 164.395 162.196 165.108 161.669 165.635C161.143 166.161 160.428 166.457 159.683 166.457V166.457Z" fill="#263238"/>
<path d="M211.027 166.457H172.44C171.695 166.457 170.981 166.161 170.454 165.635C169.927 165.108 169.631 164.395 169.631 163.65V163.65C169.634 162.908 169.931 162.196 170.457 161.672C170.984 161.147 171.697 160.853 172.44 160.853H211.027C211.771 160.853 212.484 161.147 213.01 161.672C213.537 162.196 213.834 162.908 213.836 163.65V163.65C213.836 164.395 213.54 165.108 213.013 165.635C212.487 166.161 211.772 166.457 211.027 166.457V166.457Z" fill="#A8BBC6"/>
<path d="M165.04 78.5698H139.165C138.422 78.5674 137.71 78.2707 137.185 77.7447C136.66 77.2186 136.365 76.5062 136.365 75.7635C136.365 75.0207 136.66 74.3083 137.185 73.7823C137.71 73.2562 138.422 72.9595 139.165 72.9571H165.04C165.783 72.9595 166.495 73.2562 167.02 73.7823C167.545 74.3083 167.84 75.0207 167.84 75.7635V75.7635C167.84 76.5062 167.545 77.2186 167.02 77.7447C166.495 78.2707 165.783 78.5674 165.04 78.5698V78.5698Z" fill="#455A64"/>
<path d="M198.369 93.249H139.165C138.422 93.2466 137.71 92.9499 137.185 92.4239C136.66 91.8978 136.365 91.1854 136.365 90.4427V90.4427C136.365 89.6999 136.66 88.9875 137.185 88.4615C137.71 87.9354 138.422 87.6387 139.165 87.6364H198.369C199.113 87.6387 199.825 87.9354 200.349 88.4615C200.874 88.9875 201.169 89.6999 201.169 90.4427V90.4427C201.169 91.1854 200.874 91.8978 200.349 92.4239C199.825 92.9499 199.113 93.2466 198.369 93.249V93.249Z" fill="#263238"/>
<path d="M262.102 108.414H139.165C138.422 108.412 137.71 108.115 137.185 107.589C136.66 107.063 136.365 106.35 136.365 105.608V105.608C136.365 104.866 136.66 104.154 137.185 103.63C137.71 103.105 138.423 102.81 139.165 102.81H262.102C262.844 102.81 263.556 103.105 264.081 103.63C264.607 104.154 264.902 104.866 264.902 105.608V105.608C264.902 106.35 264.607 107.063 264.082 107.589C263.557 108.115 262.845 108.412 262.102 108.414V108.414Z" fill="#A8BBC6"/>
<path d="M197.136 119.1H139.165C138.422 119.097 137.71 118.801 137.185 118.275C136.66 117.749 136.365 117.036 136.365 116.293V116.293C136.365 115.551 136.66 114.838 137.185 114.312C137.71 113.786 138.422 113.489 139.165 113.487H197.136C197.879 113.489 198.591 113.786 199.116 114.312C199.641 114.838 199.936 115.551 199.936 116.293V116.293C199.936 117.036 199.641 117.749 199.116 118.275C198.591 118.801 197.879 119.097 197.136 119.1V119.1Z" fill="#A8BBC6"/>
<path d="M185.279 137.737H127.308C126.565 137.737 125.853 137.442 125.328 136.917C124.803 136.393 124.508 135.681 124.508 134.939V134.939C124.507 134.571 124.578 134.206 124.719 133.866C124.859 133.526 125.065 133.216 125.325 132.955C125.585 132.695 125.894 132.488 126.234 132.347C126.575 132.206 126.94 132.133 127.308 132.133H185.279C185.647 132.133 186.012 132.206 186.352 132.347C186.692 132.488 187.001 132.695 187.262 132.955C187.522 133.216 187.728 133.526 187.868 133.866C188.008 134.206 188.08 134.571 188.078 134.939V134.939C188.078 135.307 188.006 135.67 187.865 136.01C187.725 136.349 187.518 136.658 187.258 136.917C186.998 137.177 186.69 137.383 186.35 137.524C186.01 137.664 185.646 137.737 185.279 137.737V137.737Z" fill="#455A64"/>
<path d="M217.726 137.737H198.297C197.554 137.737 196.84 137.442 196.314 136.918C195.787 136.394 195.49 135.682 195.488 134.939V134.939C195.488 134.195 195.784 133.481 196.311 132.955C196.838 132.429 197.552 132.133 198.297 132.133H217.726C218.47 132.133 219.185 132.429 219.712 132.955C220.239 133.481 220.534 134.195 220.534 134.939V134.939C220.532 135.682 220.235 136.394 219.709 136.918C219.182 137.442 218.469 137.737 217.726 137.737V137.737Z" fill="#FE7E02"/>
<path d="M267.395 137.647H230.663C229.918 137.647 229.203 137.351 228.677 136.825C228.15 136.298 227.854 135.585 227.854 134.84C227.863 134.102 228.164 133.398 228.689 132.879C229.215 132.361 229.924 132.07 230.663 132.07H267.395C268.139 132.07 268.852 132.364 269.378 132.889C269.905 133.413 270.202 134.125 270.204 134.867V134.867C270.197 135.607 269.898 136.314 269.372 136.834C268.846 137.355 268.136 137.647 267.395 137.647V137.647Z" fill="#263238"/>
<path d="M317.344 137.647H280.639C280.27 137.647 279.906 137.574 279.565 137.433C279.225 137.292 278.916 137.085 278.656 136.824C278.396 136.564 278.19 136.254 278.049 135.914C277.909 135.573 277.838 135.209 277.839 134.84C277.839 134.473 277.911 134.109 278.052 133.77C278.193 133.431 278.399 133.122 278.659 132.862C278.919 132.603 279.228 132.397 279.567 132.256C279.907 132.115 280.271 132.043 280.639 132.043H317.344C318.088 132.043 318.801 132.338 319.327 132.862C319.854 133.386 320.151 134.098 320.153 134.84V134.84C320.153 135.585 319.857 136.299 319.33 136.825C318.804 137.351 318.089 137.647 317.344 137.647V137.647Z" fill="#A8BBC6"/>
<path d="M38.358 137.404H22.8728C22.1294 137.401 21.4172 137.105 20.8924 136.579C20.3676 136.053 20.0729 135.34 20.0729 134.597V134.597C20.0729 133.855 20.3676 133.142 20.8924 132.616C21.4172 132.09 22.1294 131.794 22.8728 131.791H38.358C39.103 131.791 39.8175 132.087 40.3443 132.613C40.871 133.139 41.167 133.853 41.167 134.597V134.597C41.167 135.342 40.871 136.056 40.3443 136.582C39.8175 137.108 39.103 137.404 38.358 137.404V137.404Z" fill="#A8BBC6"/>
<path d="M33.7215 182.764H22.8728C22.5044 182.764 22.1396 182.691 21.7993 182.55C21.459 182.409 21.1499 182.202 20.8898 181.941C20.6297 181.681 20.4236 181.371 20.2834 181.031C20.1433 180.69 20.0717 180.326 20.0729 179.958V179.958C20.0729 179.59 20.1453 179.226 20.286 178.887C20.4267 178.548 20.633 178.239 20.893 177.98C21.153 177.72 21.4616 177.514 21.8013 177.373C22.1411 177.233 22.5051 177.16 22.8728 177.16H33.7215C34.4649 177.16 35.178 177.455 35.7045 177.979C36.2311 178.503 36.5281 179.215 36.5304 179.958C36.5304 180.702 36.2345 181.416 35.7077 181.942C35.1809 182.468 34.4665 182.764 33.7215 182.764V182.764Z" fill="#A8BBC6"/>
<path d="M52.988 152.524H22.8728C22.1294 152.521 21.4173 152.225 20.8924 151.699C20.3676 151.173 20.0729 150.46 20.0729 149.718V149.718C20.0729 148.975 20.3676 148.262 20.8924 147.736C21.4173 147.21 22.1294 146.914 22.8728 146.911H52.988C53.7329 146.911 54.4474 147.207 54.9742 147.733C55.501 148.259 55.7969 148.973 55.7969 149.718V149.718C55.7969 150.462 55.501 151.176 54.9742 151.702C54.4474 152.228 53.7329 152.524 52.988 152.524V152.524Z" fill="#A8BBC6"/>
<path d="M47.7032 167.644H22.8728C22.1294 167.642 21.4172 167.345 20.8924 166.819C20.3676 166.293 20.0729 165.58 20.0729 164.838V164.838C20.0729 164.47 20.1453 164.106 20.286 163.767C20.4267 163.428 20.633 163.119 20.893 162.86C21.153 162.6 21.4616 162.394 21.8013 162.253C22.141 162.113 22.5051 162.04 22.8728 162.04H47.7032C48.0716 162.039 48.4367 162.111 48.7774 162.251C49.1182 162.391 49.4279 162.596 49.6889 162.856C49.9498 163.116 50.1569 163.425 50.2981 163.765C50.4394 164.105 50.5121 164.469 50.5121 164.838V164.838C50.5121 165.582 50.2162 166.296 49.6894 166.822C49.1626 167.348 48.4482 167.644 47.7032 167.644V167.644Z" fill="#A8BBC6"/>
<path d="M85.048 75.7634C85.0498 76.3278 84.8839 76.8799 84.5714 77.35C84.2589 77.8201 83.8138 78.1869 83.2925 78.4041C82.7711 78.6213 82.197 78.6791 81.6428 78.5701C81.0886 78.4611 80.5792 78.1902 80.1792 77.7918C79.7792 77.3934 79.5064 76.8854 79.3956 76.332C79.2847 75.7787 79.3407 75.2049 79.5565 74.6834C79.7722 74.1619 80.138 73.716 80.6075 73.4023C81.0771 73.0886 81.6292 72.9211 82.194 72.9211C82.9494 72.9211 83.6739 73.2203 84.2089 73.7531C84.7439 74.2859 85.0456 75.0088 85.048 75.7634V75.7634Z" fill="#455A64"/>
<path d="M85.048 90.3978C85.048 90.9617 84.8806 91.513 84.567 91.9819C84.2534 92.4507 83.8077 92.8162 83.2862 93.032C82.7647 93.2478 82.1909 93.3043 81.6373 93.1943C81.0836 93.0842 80.5751 92.8127 80.176 92.4139C79.7769 92.0152 79.505 91.5071 79.3949 90.954C79.2848 90.4009 79.3413 89.8276 79.5573 89.3066C79.7733 88.7856 80.1391 88.3403 80.6085 88.027C81.0778 87.7137 81.6296 87.5464 82.194 87.5464C82.951 87.5464 83.6769 87.8468 84.2121 88.3816C84.7473 88.9163 85.048 89.6415 85.048 90.3978Z" fill="#455A64"/>
<path d="M85.048 105.608C85.0498 106.172 84.8839 106.724 84.5714 107.194C84.2589 107.664 83.8138 108.031 83.2925 108.248C82.7711 108.466 82.197 108.523 81.6428 108.414C81.0886 108.305 80.5792 108.034 80.1792 107.636C79.7792 107.238 79.5064 106.73 79.3956 106.176C79.2847 105.623 79.3407 105.049 79.5565 104.528C79.7722 104.006 80.138 103.56 80.6075 103.247C81.0771 102.933 81.6292 102.765 82.194 102.765C82.9494 102.765 83.6739 103.065 84.2089 103.597C84.7439 104.13 85.0456 104.853 85.048 105.608V105.608Z" fill="#455A64"/>
<path d="M85.048 120.818C85.0498 121.382 84.8839 121.934 84.5714 122.404C84.2589 122.874 83.8138 123.241 83.2925 123.458C82.7711 123.676 82.197 123.733 81.6428 123.624C81.0886 123.515 80.5792 123.244 80.1792 122.846C79.7792 122.448 79.5064 121.94 79.3956 121.386C79.2847 120.833 79.3407 120.259 79.5565 119.738C79.7722 119.216 80.138 118.77 80.6075 118.457C81.0771 118.143 81.6292 117.975 82.194 117.975C82.9494 117.975 83.6739 118.275 84.2089 118.807C84.7439 119.34 85.0456 120.063 85.048 120.818Z" fill="#455A64"/>
<path d="M85.048 136.037C85.048 136.601 84.8806 137.152 84.567 137.621C84.2534 138.09 83.8077 138.455 83.2862 138.671C82.7647 138.887 82.1909 138.943 81.6373 138.833C81.0836 138.723 80.5751 138.452 80.176 138.053C79.7769 137.654 79.505 137.146 79.3949 136.593C79.2848 136.04 79.3413 135.466 79.5573 134.945C79.7733 134.424 80.1391 133.979 80.6085 133.666C81.0778 133.353 81.6296 133.185 82.194 133.185C82.5692 133.184 82.9408 133.257 83.2876 133.4C83.6344 133.543 83.9495 133.753 84.2148 134.018C84.48 134.283 84.6902 134.598 84.8332 134.944C84.9762 135.291 85.0492 135.662 85.048 136.037Z" fill="#455A64"/>
<path d="M85.048 151.247C85.048 151.811 84.8806 152.362 84.567 152.831C84.2534 153.3 83.8077 153.665 83.2862 153.881C82.7647 154.097 82.1909 154.153 81.6373 154.043C81.0836 153.933 80.5751 153.662 80.176 153.263C79.7769 152.864 79.505 152.356 79.3949 151.803C79.2848 151.25 79.3413 150.676 79.5573 150.155C79.7733 149.634 80.1391 149.189 80.6085 148.876C81.0778 148.562 81.6296 148.395 82.194 148.395C82.951 148.395 83.6769 148.696 84.2121 149.23C84.7473 149.765 85.048 150.49 85.048 151.247V151.247Z" fill="#455A64"/>
<path d="M85.048 166.457C85.048 167.021 84.8806 167.572 84.567 168.041C84.2534 168.51 83.8077 168.875 83.2862 169.091C82.7647 169.307 82.1909 169.363 81.6373 169.253C81.0836 169.143 80.5751 168.872 80.176 168.473C79.7769 168.074 79.505 167.566 79.3949 167.013C79.2848 166.46 79.3413 165.886 79.5573 165.365C79.7733 164.844 80.1391 164.399 80.6085 164.086C81.0778 163.773 81.6296 163.605 82.194 163.605C82.951 163.605 83.6769 163.906 84.2121 164.44C84.7473 164.975 85.048 165.7 85.048 166.457Z" fill="#455A64"/>
<path d="M85.048 181.667C85.0498 182.231 84.8839 182.783 84.5714 183.253C84.2589 183.723 83.8138 184.09 83.2925 184.307C82.7711 184.524 82.197 184.582 81.6428 184.473C81.0886 184.364 80.5792 184.093 80.1792 183.695C79.7792 183.297 79.5064 182.788 79.3956 182.235C79.2847 181.682 79.3407 181.108 79.5565 180.586C79.7722 180.065 80.138 179.619 80.6075 179.305C81.0771 178.992 81.6292 178.824 82.194 178.824C82.9494 178.824 83.6739 179.123 84.2089 179.656C84.7439 180.189 85.0456 180.912 85.048 181.667V181.667Z" fill="#455A64"/>
<path d="M85.048 196.885C85.048 197.449 84.8806 198.001 84.567 198.47C84.2534 198.938 83.8077 199.304 83.2862 199.52C82.7647 199.736 82.1909 199.792 81.6373 199.682C81.0836 199.572 80.5751 199.3 80.176 198.902C79.7769 198.503 79.505 197.995 79.3949 197.442C79.2848 196.889 79.3413 196.315 79.5573 195.794C79.7733 195.273 80.1391 194.828 80.6085 194.515C81.0778 194.201 81.6296 194.034 82.194 194.034C82.951 194.034 83.6769 194.335 84.2121 194.869C84.7473 195.404 85.048 196.129 85.048 196.885Z" fill="#455A64"/>
<path d="M85.048 212.122C85.048 212.686 84.8806 213.238 84.567 213.707C84.2534 214.175 83.8077 214.541 83.2862 214.757C82.7647 214.973 82.1909 215.029 81.6373 214.919C81.0836 214.809 80.5751 214.537 80.176 214.139C79.7769 213.74 79.505 213.232 79.3949 212.679C79.2848 212.126 79.3413 211.552 79.5573 211.031C79.7733 210.51 80.1391 210.065 80.6085 209.752C81.0778 209.438 81.6296 209.271 82.194 209.271C82.5692 209.27 82.9408 209.343 83.2876 209.486C83.6344 209.629 83.9495 209.839 84.2148 210.104C84.48 210.369 84.6902 210.683 84.8332 211.03C84.9762 211.376 85.0492 211.748 85.048 212.122V212.122Z" fill="#455A64"/>
<path d="M85.048 227.305C85.048 227.869 84.8806 228.421 84.567 228.889C84.2534 229.358 83.8077 229.724 83.2862 229.94C82.7647 230.155 82.1909 230.212 81.6373 230.102C81.0836 229.992 80.5751 229.72 80.176 229.322C79.7769 228.923 79.505 228.415 79.3949 227.862C79.2848 227.309 79.3413 226.735 79.5573 226.214C79.7733 225.693 80.1391 225.248 80.6085 224.935C81.0778 224.621 81.6296 224.454 82.194 224.454C82.951 224.454 83.6769 224.755 84.2121 225.289C84.7473 225.824 85.048 226.549 85.048 227.305V227.305Z" fill="#455A64"/>
<path d="M85.048 242.515C85.048 243.079 84.8806 243.631 84.567 244.099C84.2534 244.568 83.8077 244.934 83.2862 245.15C82.7647 245.365 82.1909 245.422 81.6373 245.312C81.0836 245.202 80.5751 244.93 80.176 244.532C79.7769 244.133 79.505 243.625 79.3949 243.072C79.2848 242.519 79.3413 241.945 79.5573 241.424C79.7733 240.903 80.1391 240.458 80.6085 240.145C81.0778 239.831 81.6296 239.664 82.194 239.664C82.951 239.664 83.6769 239.964 84.2121 240.499C84.7473 241.034 85.048 241.759 85.048 242.515V242.515Z" fill="#455A64"/>
<path d="M13.0057 42.0695H359.775C361.05 42.0695 362.273 42.5755 363.175 43.4763C364.077 44.3771 364.583 45.5988 364.583 46.8726V64.2863H8V47.0705C8 45.7442 8.52739 44.4721 9.46614 43.5343C10.4049 42.5964 11.6781 42.0695 13.0057 42.0695Z" fill="#EBEBEB"/>
<path d="M360.091 266.99C360.338 266.982 360.585 266.958 360.829 266.918C361.56 266.79 362.247 266.48 362.828 266.018C363.296 265.629 363.677 265.145 363.944 264.597C364.211 264.05 364.358 263.452 364.376 262.843V257.77C364.376 250.08 364.376 238.747 364.376 224.157C364.376 194.961 364.376 152.722 364.313 100.535C364.313 87.4865 364.313 73.8326 364.313 59.5731V47.3673C364.341 46.921 364.341 46.4734 364.313 46.0271C364.186 45.1509 363.782 44.338 363.161 43.7065C362.539 43.0707 361.727 42.654 360.847 42.5192C360.396 42.4615 359.942 42.4405 359.487 42.4563H335.359H237.289H12.5736C11.9803 42.4567 11.3938 42.5837 10.8535 42.8288C10.3132 43.0739 9.83148 43.4314 9.44059 43.8774C9.0488 44.3218 8.75985 44.8469 8.5943 45.4155C8.44791 46.0032 8.39326 46.61 8.43226 47.2144V98.7898C8.43226 118.182 8.43226 137.278 8.43226 156.077V211.358C8.43226 220.388 8.43226 229.323 8.43226 238.162V261.116C8.32831 262.167 8.43543 263.228 8.74735 264.237C9.04741 264.956 9.5449 265.574 10.1822 266.021C10.8196 266.469 11.5706 266.726 12.3486 266.765C12.8707 266.765 13.4199 266.765 13.9511 266.765H57.9669H105.575H191.023L314.751 266.837L348.396 266.882H357.147H360.127H357.147H348.396L314.751 266.927L191.023 266.99H105.575H13.9151C13.3749 266.99 12.8527 266.99 12.2945 266.99C11.7313 266.961 11.1786 266.827 10.665 266.594C9.62924 266.117 8.81004 265.27 8.36923 264.219C8.14956 263.698 8.03043 263.139 8.01811 262.573V238.153C8.01811 229.32 8.01811 220.386 8.01811 211.349V156.068C8.01811 137.287 8.01811 118.191 8.01811 98.7808V47.2504C7.97955 46.6088 8.04337 45.9651 8.20718 45.3435C8.37316 44.7155 8.68117 44.134 9.10748 43.6436C9.53793 43.1499 10.0692 42.754 10.6655 42.4825C11.2618 42.211 11.9093 42.0702 12.5646 42.0695H237.28H335.35H359.406C359.875 42.0549 360.345 42.076 360.811 42.1325C361.76 42.2819 362.637 42.7309 363.312 43.4139C363.988 44.0969 364.427 44.978 364.565 45.9282C364.601 46.3922 364.601 46.8583 364.565 47.3224V59.4741C364.565 73.7097 364.565 87.3636 364.565 100.436C364.565 152.605 364.511 194.88 364.493 224.058C364.493 238.648 364.493 249.981 364.493 257.671C364.493 259.587 364.493 261.269 364.493 262.744C364.465 263.742 364.09 264.698 363.433 265.45C362.776 266.202 361.877 266.701 360.892 266.864C360.708 266.899 360.521 266.917 360.334 266.918L360.091 266.99Z" fill="#263238"/>
<path d="M21.6486 56.2271C23.1254 56.2271 24.3225 55.0311 24.3225 53.5557C24.3225 52.0803 23.1254 50.8843 21.6486 50.8843C20.1719 50.8843 18.9747 52.0803 18.9747 53.5557C18.9747 55.0311 20.1719 56.2271 21.6486 56.2271Z" fill="white"/>
<path d="M29.1932 56.2271C30.6699 56.2271 31.8671 55.0311 31.8671 53.5557C31.8671 52.0803 30.6699 50.8843 29.1932 50.8843C27.7164 50.8843 26.5193 52.0803 26.5193 53.5557C26.5193 55.0311 27.7164 56.2271 29.1932 56.2271Z" fill="white"/>
<path d="M36.7287 56.2271C38.2055 56.2271 39.4026 55.0311 39.4026 53.5557C39.4026 52.0803 38.2055 50.8843 36.7287 50.8843C35.252 50.8843 34.0548 52.0803 34.0548 53.5557C34.0548 55.0311 35.252 56.2271 36.7287 56.2271Z" fill="white"/>
<path d="M224.805 250.45C224.805 250.45 249.074 251.469 280.576 250.65C292.953 269.559 300.435 285.816 298.106 305.046C298.106 305.046 293.19 320.608 269.156 322.069L220.714 314.537L177.914 316.116C177.914 316.116 136.239 270.515 162.98 262.524L214.635 269.211L224.805 250.45Z" fill="#38454C"/>
<path d="M293.812 285.013C293.514 284.549 293.227 284.07 292.898 283.627C292.56 283.171 292.194 282.734 291.84 282.291C291.111 281.386 290.372 280.489 289.619 279.604C288.102 277.817 286.51 276.087 284.902 274.38C284.104 273.533 283.299 272.696 282.485 271.866C282.073 271.446 281.659 271.025 281.243 270.608C280.853 270.217 280.492 269.799 280.11 269.398C279.335 268.583 278.502 267.806 277.645 267.08C276.823 266.384 276.05 265.624 275.203 264.961C274.318 264.267 273.366 263.665 272.436 263.034C271.998 262.736 271.581 262.394 271.133 262.113C270.883 261.957 270.632 261.796 270.396 261.619C270.19 261.465 270.008 261.275 269.833 261.086C269.813 261.065 269.718 261.08 269.739 261.106C269.998 261.429 270.279 261.742 270.558 262.049C270.87 262.394 271.247 262.656 271.624 262.926C272.418 263.496 273.232 264.032 273.985 264.659C274.737 265.283 275.352 266.059 276.028 266.763C276.387 267.138 276.727 267.53 277.092 267.898C277.489 268.295 277.882 268.696 278.269 269.103C278.652 269.509 279.034 269.916 279.406 270.33C279.788 270.755 280.196 271.154 280.597 271.561C281.41 272.386 282.216 273.218 283.015 274.058C284.623 275.75 286.199 277.474 287.733 279.232C288.591 280.217 289.453 281.201 290.294 282.202C290.705 282.692 291.113 283.184 291.517 283.68C291.948 284.208 292.436 284.694 292.895 285.2C293.027 285.346 293.352 285.338 293.522 285.3C293.628 285.279 293.92 285.179 293.812 285.013Z" fill="#0D3474"/>
<path d="M248.236 160.286L270.276 160.747L270.778 136.715L248.741 136.253C248.741 136.253 250.693 155.238 248.236 160.286Z" fill="#A8BBC6"/>
<path d="M249.359 154.249C254.362 153.841 259.11 153.649 264.018 152.213C266.37 151.524 268.523 150.663 270.507 149.517L270.775 136.715L248.737 136.253C248.741 136.253 249.822 146.788 249.359 154.249Z" fill="#7696A9"/>
<path d="M234.543 119.086C235.932 122.576 237.358 126.631 239.782 129.692C242.55 133.19 246.611 133.438 248.481 129.072C250.242 124.962 250.181 119.886 249.42 115.662C249.008 113.355 248.228 110.742 246.068 109.173C242.694 106.721 238.252 107.486 235.745 110.388C233.396 113.111 233.323 116.011 234.543 119.086Z" fill="#FE7E02"/>
<path d="M238.093 124.954C238.325 129.149 238.945 133.333 240.05 137.388C241.175 141.504 242.707 149.217 247.355 150.936C248.793 151.468 249.961 151.429 251.619 151.324C257.949 150.928 264.695 146.72 268.719 142.024C276.224 133.272 276.203 112.038 268.684 103.809C261.822 96.2961 239.999 100.163 238.534 112.141C238.028 116.277 237.854 120.614 238.093 124.954Z" fill="#A8BBC6"/>
<path d="M242.825 135.226C243.281 135.432 244.21 135.894 244.705 136.017C246.571 136.482 248.28 136.266 250.12 135.757C252.719 135.036 255.3 133.43 258.05 134.355C259.71 134.914 261.137 135.284 262.889 135.204C265.104 135.101 267.076 133.602 267.956 131.599C268.637 130.051 268.766 128.03 269.665 126.628C270.811 124.84 272.414 123.623 274.331 123.006C274.291 130.344 274.019 140.931 270.315 145.251C266.291 149.946 256.099 154.241 249.77 154.637C248.113 154.74 246.944 154.779 245.507 154.248C240.859 152.529 241.173 141.501 240.05 137.385C239.794 136.443 239.568 135.495 239.365 134.542C240.4 134.378 241.483 134.616 242.825 135.226Z" fill="#FE7E02"/>
<path d="M271.632 122.57C271.748 122.443 271.876 122.309 271.938 122.148C271.996 122.003 272.022 121.842 272.074 121.694C272.17 121.419 272.33 121.161 272.496 120.921C272.659 120.686 272.842 120.471 273.05 120.274C273.258 120.078 273.506 119.922 273.703 119.714C273.864 119.543 274.049 119.426 274.262 119.328C274.326 119.299 274.391 119.267 274.457 119.242C274.49 119.229 274.597 119.229 274.532 119.217C274.487 119.207 274.407 119.204 274.5 119.218C274.61 119.238 274.518 119.204 274.671 119.26C274.888 119.339 275 119.37 275.191 119.444C275.486 119.558 275.717 119.683 276.05 119.643C275.918 119.626 275.787 119.609 275.655 119.592C275.854 119.698 276.076 119.77 276.271 119.88C276.458 119.984 276.561 120.189 276.649 120.374C276.844 120.777 277.036 121.192 277.196 121.61C277.37 122.072 277.479 122.554 277.635 123.021C277.8 123.512 277.821 124.02 277.938 124.518C277.946 124.548 278.03 124.552 278.033 124.518C278.104 123.61 277.864 122.678 277.606 121.815C277.482 121.398 277.305 121.007 277.149 120.601C277.078 120.416 277.002 120.231 276.907 120.057C276.867 119.985 276.838 119.899 276.793 119.83C276.727 119.732 276.643 119.698 276.545 119.637C276.469 119.588 276.425 119.542 276.376 119.468C276.308 119.368 276.253 119.341 276.147 119.281C276.031 119.217 275.916 119.102 275.787 119.038C275.43 118.859 275.108 118.761 274.726 118.716C274.221 118.656 273.727 118.824 273.289 119.06C273.123 119.151 272.96 119.255 272.821 119.384C272.66 119.532 272.488 119.661 272.327 119.809C271.967 120.137 271.656 120.525 271.42 120.95C271.287 121.187 271.178 121.43 271.11 121.694C271.078 121.823 271.043 121.955 271.02 122.084C270.997 122.214 271.001 122.346 270.977 122.478C270.936 122.71 271.539 122.673 271.632 122.57Z" fill="#A4B7C2"/>
<path d="M268.716 118.996C268.995 120.047 269.214 124.865 269.552 125.796C269.887 126.73 272.006 125.249 272.006 125.249C273.5 123.676 271.569 120.133 274.175 119.561C277.002 118.938 272.871 136.561 272.937 138.483C275.104 136.187 282.712 124.336 284.31 116.127C285.495 110.049 284.119 106.377 282.711 104.025C275.881 92.6175 273.421 93.3323 267.084 94.2177C264.195 94.6218 261.981 101.14 260.924 103.996C259.79 107.051 261.87 109.385 263.965 111.348C266.584 113.801 267.43 114.183 268.716 118.996Z" fill="#FE7E02"/>
<path d="M276.632 119.616C279.592 122.171 278.467 130.331 273.123 133.362C271.639 131.936 271.392 127.834 271.078 125.823C270.771 123.85 270.571 121.952 271.668 120.183C272.005 119.64 274.455 117.737 276.632 119.616Z" fill="#A8BBC6"/>
<path d="M238.658 192.228C241.608 174.256 232.569 173.324 232.569 173.324C222.401 170.721 217.671 186.18 217.671 186.18C217.671 186.18 210.338 220.379 210.437 235.708C210.437 235.708 221.22 242.396 226.312 232.844L238.658 192.228Z" fill="#A8BBC6"/>
<path d="M266.757 157.311L300.804 169.831L282.058 253.702H237.184L224.844 171.499L250.821 157.311H266.757Z" fill="#A8BBC6"/>
<path d="M249.123 157.311L226.368 168.746L235.771 253.092C244.842 257.698 249.925 254.766 263.949 254.747C268.433 254.742 281.72 257.196 283.668 252.492C284.85 249.633 288.187 243.612 288.082 240.577C287.979 237.535 291.314 232.599 291.564 229.561C291.811 226.53 291.754 223.515 293.243 220.79C296.011 215.714 295.971 208.196 297.231 202.494C298.51 196.707 299.382 193.84 299.383 187.888C299.383 184.728 302.096 181.188 302.873 178.113C303.696 174.845 303.234 170.906 300.005 169.43C297.137 168.118 293.87 167.299 290.896 166.201L271.336 158.768C271.336 158.77 253.468 164.46 249.123 157.311Z" fill="#F9B24E"/>
<path d="M235.434 221.876L240.981 191.689C240.981 191.689 249.045 174.137 234.997 164.874C234.997 164.874 219.847 167.254 217.046 181.516L209.452 211.651C209.451 211.652 210.213 219.157 235.434 221.876Z" fill="#F9B24E"/>
<path d="M286.619 289.327C282.669 282.698 281.472 274.377 276.438 268.389C271.635 262.677 262.942 256.869 255.123 257.273C250.3 257.521 243.435 264.317 238.478 263.264C232.524 261.999 222.173 267.812 217.225 264.432C213.255 261.719 224.046 239.774 225.227 234.914C226.769 228.566 229.685 215.216 231.081 208.975C232.287 203.579 233.512 198.329 237.728 194.416C250.012 183.012 271.08 184.968 285.342 190.745C287.539 191.636 288.825 192.331 289.581 193.233C290.757 194.636 294.749 192.695 294.817 196.61C294.936 203.403 296.157 202.65 296.146 209.448C296.136 214.32 297.147 222.609 298.104 227.333C299.523 234.346 298.914 243.118 300.802 250.043C304.147 262.3 305.304 286.774 303.229 299.782C303.232 299.785 291.696 301.019 286.619 289.327Z" fill="#F9B24E"/>
<path d="M237.867 261.101C259.995 257.949 314.245 263.633 316.413 238.237C318.187 217.469 311.182 184.723 301.644 177.273C294.562 171.74 285.045 174.815 281.241 183.113C277.004 192.359 289.975 224.251 292.072 237.519C292.072 237.519 273.047 250.5 232.872 254.654L237.867 261.101Z" fill="#A8BBC6"/>
<path d="M323.726 231.153L307.302 178.999C303.962 170.188 298.292 168.709 297.14 168.709C279.595 168.707 278.048 190.356 278.048 190.356L286.541 228.604C286.541 228.604 305.652 239.542 323.726 231.153Z" fill="#F9B24E"/>
<path d="M241.165 256.785C240.255 255.579 235.233 254.81 232.872 254.654C226.415 254.229 220.858 254.641 214.856 256.18C212.792 256.709 208.315 257.891 206.411 258.941C205.249 259.581 202.984 260.104 203.364 261.544C204.269 262.033 209.493 260.991 212.931 260.187C207.915 261.648 206.744 263.023 206.643 263.69C207.867 265.039 213.746 262.386 217.882 261.487C219.218 261.198 210.031 264.657 214.521 265.03C215.493 265.111 221.817 263.292 224.812 262.614C224.489 262.925 220.516 264.99 220.615 265.346C220.7 266.27 224.668 265.293 226.65 264.758C229.313 264.039 244.761 261.537 241.165 256.785Z" fill="#A8BBC6"/>
<path d="M177.901 244.101C176.8 243.065 171.722 243.14 169.368 243.378C162.93 244.032 157.521 245.363 151.856 247.878C149.91 248.742 145.692 250.653 143.987 252.004C142.948 252.828 140.802 253.72 141.417 255.077C142.394 255.409 147.371 253.514 150.627 252.149C145.922 254.425 144.997 255.975 145.01 256.648C146.443 257.775 151.796 254.182 155.726 252.608C156.994 252.099 148.51 257.039 153 256.659C153.972 256.577 159.906 253.733 162.746 252.566C162.479 252.925 158.907 255.623 159.061 255.958C159.301 256.854 163.049 255.23 164.913 254.375C167.422 253.223 182.238 248.189 177.901 244.101Z" fill="#A8BBC6"/>
<path d="M211.134 224.846L166.985 246.548L171.409 250.449C171.409 250.449 218.746 243.52 225.48 235.696C225.48 235.698 220.803 222.609 211.134 224.846Z" fill="#A8BBC6"/>
<path d="M246.861 265.043H169.062V268.762H246.861V265.043Z" fill="#DB6E05"/>
<path d="M146.591 268.76H218.992L212.642 217.694H140.24L146.591 268.76Z" fill="#FE7E02"/>
<path d="M221.573 268.76H218.992L212.642 217.694H215.22L221.573 268.76Z" fill="#DB6E05"/>
<path d="M173.824 241.997C173.824 245.193 176.418 247.783 179.615 247.783C182.815 247.783 185.406 245.193 185.406 241.997C185.406 238.802 182.815 236.212 179.615 236.212C176.418 236.212 173.824 238.803 173.824 241.997Z" fill="#F9B24E"/>
<path d="M215.789 306.771L232.352 313.512L228.094 326.379L211.221 320.688L215.789 306.771Z" fill="#7696A9"/>
<path d="M193.283 305.936L175.467 307.509L175.75 321.057L193.55 320.58L193.283 305.936Z" fill="#F9B24E"/>
<path d="M180.877 321.096C173.19 323.209 151.259 321.437 143.275 318.412C133.611 314.746 134.278 295.419 146.449 298.188C157.478 300.698 169.065 305.199 180.31 306.111C180.308 306.11 187.006 311.298 180.877 321.096Z" fill="#F9B24E"/>
<path d="M180.877 321.096C178.128 315.437 179.68 303.631 179.68 303.631L189.287 298.589C201.144 289.374 215.214 283.389 226.824 273.87C235.814 266.5 244.608 254.198 257.673 255.505C266.509 256.389 272.598 263.025 277.663 269.683C286.112 280.779 298.106 289.833 298.106 305.046C298.106 317.895 281.048 327.538 271.845 326.088C265.043 325.015 254.825 316.451 251.045 311.29L240.895 298.782C240.895 298.782 236.862 311.916 197.678 320.155C197.68 320.154 186.036 322.644 180.877 321.096Z" fill="#45525B"/>
<path d="M139.449 256.136C121.565 258.464 126.19 275.052 132.461 280.797C149.343 296.267 173.694 307.914 194.937 316.115C195.658 316.393 215.789 323.9 219.157 325.241C214.974 315.144 224.311 308.111 224.311 308.108C224.311 308.108 200.535 296.61 184.584 279.855C184.586 279.855 160.75 251.629 139.449 256.136Z" fill="#45525B"/>
<path d="M223.181 324.908C229.903 329.19 251.39 333.942 259.908 333.396C270.224 332.734 275.278 314.065 262.832 313.135C251.554 312.291 239.153 313.185 228.135 310.751C228.135 310.751 220.209 313.743 223.181 324.908Z" fill="#F9B24E"/>
<path d="M265.637 99.8472C265.678 103.423 258.115 111.642 254.332 111.277C255.05 109.575 255.008 107.634 255.368 105.956C252.157 108.281 247.586 111.75 244.019 113.357C242.472 114.054 238.349 115.474 237.012 114.34C236.143 113.606 236.714 112.093 236.193 111.258C235.222 109.698 235.354 110.543 233.789 109.754C224.844 105.243 237.142 100.578 243.482 96.919C249.877 93.2309 256.407 86.7675 263.327 89.1436C266.266 90.1513 269.332 90.1867 270.822 92.9379C272.048 95.1949 273.182 101.851 269.544 102.55L265.637 99.8472Z" fill="#FE7E02"/>
<path d="M279.503 196.913L286.336 227.686L286.541 228.604L290.501 230.474" stroke="#EF9D3A" stroke-width="3" stroke-miterlimit="10"/>
<path d="M228.374 221.453L232.808 195.894" stroke="#EF9D3A" stroke-width="3" stroke-miterlimit="10"/>
<path d="M35.987 239.535H4.00297C2.94659 239.535 1.93349 239.116 1.18652 238.369C0.439546 237.623 0.0198975 236.611 0.0198975 235.555V191.305C0.0198975 190.249 0.439546 189.237 1.18652 188.491C1.93349 187.745 2.94659 187.326 4.00297 187.326H24.2868L39.99 203.472V235.536C39.9927 236.062 39.8909 236.583 39.6907 237.069C39.4905 237.556 39.1957 237.997 38.8235 238.369C38.4512 238.741 38.0089 239.036 37.522 239.236C37.0352 239.436 36.5135 239.537 35.987 239.535V239.535Z" fill="#EEC284"/>
<path d="M0 223.687H40V233.844C40 235.347 39.4054 236.788 38.3459 237.854C37.2863 238.92 35.8478 239.524 34.344 239.535H5.6958C4.18518 239.535 2.73643 238.935 1.66826 237.868C0.600088 236.801 0 235.353 0 233.844V223.687Z" fill="#F9B24E"/>
<path d="M14.1697 233.914L15.1654 232.7C15.3177 232.953 15.53 233.164 15.7837 233.315C16.0373 233.466 16.3243 233.552 16.6193 233.566C17.3462 233.566 17.7345 233.128 17.7345 232.272V228.552H14.9763V227.099H19.5269V232.163C19.5269 234.153 18.5311 235.048 16.7089 235.048C16.2272 235.065 15.748 234.971 15.308 234.774C14.8679 234.578 14.4786 234.284 14.1697 233.914V233.914Z" fill="#FAFAFA"/>
<path d="M20.6223 234.362L21.1999 233.108C21.8324 233.484 22.5547 233.684 23.291 233.685C24.0975 233.685 24.4062 233.476 24.4062 233.138C24.4062 232.143 20.7717 233.138 20.7717 230.76C20.7717 229.616 21.7674 228.771 23.5499 228.771C24.3533 228.757 25.1485 228.935 25.87 229.288L25.2825 230.531C24.7552 230.231 24.157 230.076 23.5499 230.084C22.7732 230.084 22.4346 230.333 22.4346 230.641C22.4346 231.636 26.0692 230.641 26.0692 233.048C26.0692 234.163 25.0734 234.958 23.2312 234.958C22.3242 234.992 21.4242 234.786 20.6223 234.362V234.362Z" fill="#FAFAFA"/>
<path d="M8.45386 215.37L9.70853 213.898C10.0416 214.437 10.5054 214.884 11.0572 215.197C11.6089 215.51 12.2307 215.679 12.8651 215.688C14.5679 215.688 15.4541 214.694 15.4541 212.624V204.138H9.98734V202.258H17.595V212.515C17.595 215.887 15.952 217.549 12.8651 217.549C12.0081 217.57 11.1588 217.383 10.3903 217.003C9.62187 216.624 8.95729 216.063 8.45386 215.37V215.37Z" fill="#FAFAFA"/>
<path d="M20.2837 216.166L21.1401 214.525C22.3253 215.297 23.7082 215.711 25.1231 215.718C27.0549 215.718 27.8515 215.131 27.8515 214.157C27.8515 211.59 20.6123 213.808 20.6123 209.252C20.6123 207.203 22.4445 205.82 25.382 205.82C26.8359 205.782 28.2744 206.125 29.5543 206.815L28.6681 208.456C27.6783 207.838 26.529 207.523 25.3621 207.551C23.5498 207.551 22.6636 208.217 22.6636 209.133C22.6636 211.829 29.9227 209.63 29.9227 214.107C29.9227 216.176 28.0208 217.499 24.9439 217.499C23.2919 217.531 21.6683 217.067 20.2837 216.166Z" fill="#FAFAFA"/>
<g opacity="0.3">
<path opacity="0.3" d="M24.2867 187.306V199.751C24.2867 200.738 24.6791 201.684 25.3775 202.382C26.0759 203.08 27.0232 203.472 28.0109 203.472H39.9601L24.2867 187.306Z" fill="white"/>
</g>
<path d="M24.4561 200.845C24.4696 201.781 24.8012 202.685 25.3965 203.408C25.9918 204.131 26.8154 204.631 27.7321 204.825C27.8626 204.864 27.9957 204.894 28.1304 204.914C29.6938 205.193 39.99 207.023 39.99 206.785V203.472H28.0408C28.0408 203.472 25.0236 203.372 24.4561 200.845Z" fill="#F9B24E"/>
<path d="M129.121 61.1282H91.6848C90.4423 61.1282 89.2507 60.6351 88.3722 59.7573C87.4936 58.8795 87 57.689 87 56.4477V4.68049C87 3.43915 87.4936 2.24865 88.3722 1.37088C89.2507 0.493123 90.4423 0 91.6848 0H115.425L133.806 18.944V56.4648C133.801 57.7031 133.306 58.8893 132.428 59.7633C131.549 60.6374 130.36 61.1282 129.121 61.1282V61.1282Z" fill="#FE7E02"/>
<g opacity="0.2">
<path opacity="0.2" d="M88.0601 42.5856H132.754C133.035 42.5856 133.305 42.6972 133.504 42.8958C133.703 43.0944 133.814 43.3638 133.814 43.6447V55.6021C133.814 57.07 133.231 58.4777 132.192 59.5157C131.153 60.5536 129.744 61.1367 128.274 61.1367H92.5397C91.0705 61.1367 89.6615 60.5536 88.6226 59.5157C87.5837 58.4777 87 57.07 87 55.6021V43.6447C87 43.5056 87.0274 43.3679 87.0807 43.2394C87.134 43.1109 87.2121 42.9941 87.3105 42.8958C87.4089 42.7974 87.5258 42.7194 87.6544 42.6662C87.783 42.613 87.9209 42.5856 88.0601 42.5856V42.5856Z" fill="black"/>
</g>
<g opacity="0.2">
<path opacity="0.2" d="M115.425 0V14.571C115.428 15.7248 115.888 16.8305 116.705 17.6456C117.523 18.4606 118.63 18.9184 119.785 18.9184H133.806L115.425 0Z" fill="white"/>
</g>
<g opacity="0.2">
<path opacity="0.2" d="M115.622 15.8436C115.629 16.9467 116.014 18.014 116.712 18.8685C117.411 19.723 118.38 20.3132 119.461 20.5412L119.922 20.6437C121.752 20.9768 133.806 23.1121 133.806 22.8387V18.944H119.785C119.785 18.944 116.28 18.8074 115.622 15.8436Z" fill="black"/>
</g>
<path d="M100.396 50.6654C100.443 49.881 100.72 49.1276 101.192 48.4991C101.664 47.8706 102.311 47.3947 103.052 47.1307C103.792 46.8667 104.595 46.8262 105.358 47.0143C106.122 47.2024 106.813 47.6107 107.347 48.1885L106.261 49.1878C106.04 48.9172 105.76 48.6999 105.444 48.552C105.127 48.4041 104.781 48.3295 104.431 48.3337C103.838 48.3696 103.281 48.6305 102.873 49.063C102.466 49.4955 102.239 50.0671 102.239 50.6611C102.239 51.2551 102.466 51.8267 102.873 52.2593C103.281 52.6918 103.838 52.9526 104.431 52.9886C104.781 52.9947 105.128 52.9209 105.445 52.7729C105.762 52.6249 106.041 52.4065 106.261 52.1345L107.347 53.1081C106.816 53.6892 106.126 54.101 105.363 54.2921C104.599 54.4832 103.796 54.4451 103.054 54.1825C102.312 53.9199 101.665 53.4446 101.192 52.816C100.719 52.1873 100.442 51.4333 100.396 50.6483V50.6654Z" fill="#FAFAFA"/>
<path d="M107.843 53.5864L108.415 52.3138C109.121 52.8026 109.959 53.0675 110.818 53.074C111.818 53.074 112.22 52.7409 112.22 52.2967C112.22 50.9302 107.988 51.8697 107.988 49.1707C107.988 47.9323 108.988 46.8988 111.057 46.8988C111.956 46.8738 112.843 47.0985 113.622 47.5479L113.109 48.8291C112.498 48.464 111.802 48.2666 111.091 48.2568C110.091 48.2568 109.706 48.6241 109.706 49.1109C109.706 50.4519 113.981 49.5294 113.981 52.1942C113.981 53.4156 112.972 54.4491 110.895 54.4491C109.812 54.4851 108.746 54.1836 107.843 53.5864Z" fill="#FAFAFA"/>
<path d="M114.476 53.5864L115.049 52.3138C115.753 52.8065 116.592 53.0718 117.451 53.074C118.443 53.074 118.854 52.7409 118.854 52.2967C118.854 50.9302 114.579 51.8697 114.579 49.1707C114.579 47.9323 115.579 46.8988 117.648 46.8988C118.547 46.8738 119.435 47.0985 120.213 47.5479L119.691 48.8291C119.082 48.4629 118.385 48.2653 117.674 48.2568C116.682 48.2568 116.297 48.6241 116.297 49.1109C116.297 50.4519 120.572 49.5294 120.572 52.1942C120.572 53.4156 119.563 54.4491 117.477 54.4491C116.412 54.4761 115.364 54.1749 114.476 53.5864V53.5864Z" fill="#FAFAFA"/>
<path d="M102.773 27.1263C103.542 27.3569 103.901 27.8437 103.901 28.9968V31.6701C103.88 31.8357 103.896 32.004 103.949 32.1623C104.002 32.3207 104.09 32.465 104.207 32.5843C104.324 32.7036 104.466 32.7947 104.624 32.8509C104.781 32.9071 104.949 32.9268 105.115 32.9086H105.423V34.9413H104.448C102.362 34.9413 101.285 33.8737 101.285 31.952V28.9284C101.301 28.826 101.294 28.7214 101.263 28.6223C101.233 28.5233 101.18 28.4325 101.109 28.3568C101.038 28.2811 100.951 28.2224 100.854 28.1854C100.757 28.1483 100.653 28.1337 100.55 28.1427H100.003V26.1099H100.55C100.653 26.1189 100.757 26.1043 100.854 26.0672C100.951 26.0301 101.038 25.9715 101.109 25.8958C101.18 25.8201 101.233 25.7293 101.263 25.6303C101.294 25.5312 101.301 25.4265 101.285 25.3241V22.2921C101.285 20.3789 102.362 19.3027 104.448 19.3027H105.423V21.344H105.115C104.949 21.3258 104.781 21.3455 104.624 21.4017C104.466 21.4578 104.324 21.549 104.207 21.6683C104.09 21.7876 104.002 21.9319 103.949 22.0902C103.896 22.2486 103.88 22.4169 103.901 22.5825V25.2558C103.901 26.4088 103.542 26.8871 102.773 27.1263Z" fill="#FAFAFA"/>
<path d="M120.811 26.1099V28.1427H120.281C120.178 28.1337 120.074 28.1483 119.977 28.1854C119.88 28.2224 119.793 28.2811 119.722 28.3568C119.651 28.4325 119.599 28.5233 119.568 28.6223C119.538 28.7214 119.53 28.826 119.546 28.9284V31.952C119.546 33.8737 118.477 34.9413 116.383 34.9413H115.391V32.9086H115.69C115.857 32.9282 116.026 32.9096 116.185 32.854C116.343 32.7984 116.487 32.7075 116.605 32.588C116.723 32.4685 116.812 32.3238 116.865 32.1647C116.918 32.0056 116.935 31.8364 116.913 31.6701V28.9968C116.913 27.8437 117.263 27.3569 118.033 27.1263C117.263 26.8871 116.913 26.4088 116.913 25.2558V22.5825C116.935 22.4161 116.918 22.247 116.865 22.0879C116.812 21.9288 116.723 21.784 116.605 21.6646C116.487 21.5451 116.343 21.4541 116.185 21.3986C116.026 21.343 115.857 21.3244 115.69 21.344H115.391V19.3027H116.357C118.452 19.3027 119.52 20.3789 119.52 22.2921V25.3241C119.504 25.4265 119.512 25.5312 119.542 25.6303C119.573 25.7293 119.626 25.8201 119.696 25.8958C119.767 25.9715 119.854 26.0301 119.951 26.0672C120.048 26.1043 120.152 26.1189 120.255 26.1099H120.811Z" fill="#FAFAFA"/>
<path d="M350.043 91.4713H309.171C307.81 91.4713 306.506 90.9314 305.544 89.9703C304.582 89.0093 304.041 87.7058 304.041 86.3467V29.8392C304.041 28.4801 304.582 27.1766 305.544 26.2156C306.506 25.2545 307.81 24.7146 309.171 24.7146H335.091L355.156 45.3754V86.3723C355.149 87.724 354.608 89.0184 353.65 89.9734C352.693 90.9284 351.396 91.4668 350.043 91.4713V91.4713Z" fill="#455A64"/>
<g opacity="0.2">
<path opacity="0.2" d="M304.05 71.2205H355.147V86.4235C355.147 87.0864 355.016 87.7428 354.762 88.3552C354.509 88.9676 354.136 89.5241 353.667 89.9928C353.198 90.4615 352.641 90.8333 352.028 91.087C351.415 91.3407 350.758 91.4712 350.095 91.4712H309.111C307.771 91.4712 306.486 90.9394 305.538 89.9928C304.591 89.0462 304.058 87.7622 304.058 86.4235V71.2205H304.05Z" fill="black"/>
</g>
<g opacity="0.2">
<path opacity="0.2" d="M335.091 24.7317V40.6351C335.091 41.8953 335.592 43.1041 336.483 43.996C337.374 44.8879 338.583 45.3902 339.845 45.3924H355.156L335.091 24.7317Z" fill="white"/>
</g>
<g opacity="0.2">
<path opacity="0.2" d="M335.296 42.0358C335.296 42.0358 335.1 45.8878 339.494 47.1604C339.66 47.2064 339.828 47.2435 339.998 47.2714C341.999 47.6301 355.156 49.9704 355.156 49.6629V45.3924H339.844C339.844 45.3924 336.023 45.2643 335.296 42.0358Z" fill="black"/>
</g>
<path d="M325.038 54.5398L318.908 56.7861L325.038 59.0153V61.3129L316.275 57.9563V55.5648L325.038 52.2338V54.5398Z" fill="#FAFAFA"/>
<path d="M331.629 47.7071H334.194L328.098 65.0283H325.533L331.629 47.7071Z" fill="#FAFAFA"/>
<path d="M343.29 55.5477V57.9563L334.518 61.2873V58.9727L340.656 56.7434L334.518 54.5399V52.2167L343.29 55.5477Z" fill="#FAFAFA"/>
<path d="M322.969 78.7537V85.5865H321.379V82.7765H318.258V85.5865H316.668V78.7537H318.258V81.4612H321.379V78.7537H322.969Z" fill="#FAFAFA"/>
<path d="M326.003 80.052H323.823V78.7537H329.808V80.052H327.611V85.6122H326.021L326.003 80.052Z" fill="#FAFAFA"/>
<path d="M336.895 85.6122V81.4954L334.869 84.9118H334.151L332.142 81.6064V85.6293H330.663V78.7964H331.971L334.536 83.0669L337.1 78.7964H338.357V85.6293L336.895 85.6122Z" fill="#FAFAFA"/>
<path d="M340.015 78.7537H341.597V84.3225H345.017V85.6122H339.99L340.015 78.7537Z" fill="#FAFAFA"/>
</g>
<defs>
<clipPath id="clip0_143_639">
<rect width="365" height="333" fill="white"/>
</clipPath>
</defs>
</svg>
